<svg xmlns="http://www.w3.org/2000/svg" xmlns:xlink="http://www.w3.org/1999/xlink" width="165" height="38.065" viewBox="0 0 165 38.065">
  <defs>
    <clipPath id="clip-path">
      <rect id="Retângulo_6" data-name="Retângulo 6" width="165" height="38.065" fill="#fff"/>
    </clipPath>
  </defs>
  <g id="Grupo_1" data-name="Grupo 1" clip-path="url(#clip-path)">
    <path id="Caminho_1" data-name="Caminho 1" d="M68.574,30.238a7.276,7.276,0,0,1-5.247-1.816,7.038,7.038,0,0,1-1.856-5.207V.007h5.045V22.852q0,3.229,3.027,3.229a4.007,4.007,0,0,0,1.816-.4l.242,4.036a8.626,8.626,0,0,1-3.027.525" transform="translate(-22.472 -0.003)" fill="#fff"/>
    <path id="Caminho_2" data-name="Caminho 2" d="M100.319,13.24V31.524q0,11.381-11.18,11.381a19.65,19.65,0,0,1-5.65-.807,11.527,11.527,0,0,1-4.4-2.26l2.26-3.794A10.3,10.3,0,0,0,84.7,37.9a12.593,12.593,0,0,0,4.157.686q3.31,0,4.843-1.615a6.659,6.659,0,0,0,1.575-4.884V31.08a8.211,8.211,0,0,1-2.947,2.059,10.116,10.116,0,0,1-3.753.686,9.487,9.487,0,0,1-6.821-2.382q-2.462-2.381-2.462-7.144V13.24h5.046V23.653a6.324,6.324,0,0,0,1.291,4.318,4.909,4.909,0,0,0,3.754,1.413,5.624,5.624,0,0,0,4.279-1.655,6.6,6.6,0,0,0,1.615-4.8V13.24Z" transform="translate(-28.914 -4.84)" fill="#fff"/>
    <path id="Caminho_3" data-name="Caminho 3" d="M132.014,12.858a9,9,0,0,1,6.538,2.382q2.463,2.381,2.462,7.063V34.653h-5.045V22.948a5.972,5.972,0,0,0-1.332-4.238,4.887,4.887,0,0,0-3.794-1.453,5.787,5.787,0,0,0-4.4,1.7,6.6,6.6,0,0,0-1.614,4.8v10.9h-5.046V13.1h4.8v2.784a7.891,7.891,0,0,1,3.148-2.26,11.331,11.331,0,0,1,4.279-.767" transform="translate(-43.791 -4.701)" fill="#fff"/>
    <path id="Caminho_4" data-name="Caminho 4" d="M169.33,34.936a12.631,12.631,0,0,1-6.014-1.413,10.408,10.408,0,0,1-4.157-3.915,11.105,11.105,0,0,1-1.493-5.731,10.891,10.891,0,0,1,1.493-5.691,10.479,10.479,0,0,1,4.117-3.915,12.718,12.718,0,0,1,6.054-1.413,11.51,11.51,0,0,1,5.57,1.292,8.354,8.354,0,0,1,3.632,3.713l-3.874,2.26a5.955,5.955,0,0,0-2.341-2.22,6.1,6.1,0,0,0-3.027-.767,6.346,6.346,0,0,0-4.681,1.856,6.518,6.518,0,0,0-1.857,4.884,6.738,6.738,0,0,0,1.816,4.924,6.475,6.475,0,0,0,4.722,1.816,6.373,6.373,0,0,0,3.027-.726,6.274,6.274,0,0,0,2.341-2.26l3.874,2.26a8.824,8.824,0,0,1-3.673,3.753,11.421,11.421,0,0,1-5.53,1.292" transform="translate(-57.64 -4.701)" fill="#fff"/>
    <path id="Caminho_5" data-name="Caminho 5" d="M202.418,30.617a6.165,6.165,0,0,0,4.6-1.857,6.686,6.686,0,0,0,1.816-4.884,6.686,6.686,0,0,0-1.816-4.884,6.63,6.63,0,0,0-9.2,0,6.769,6.769,0,0,0-1.776,4.884,6.769,6.769,0,0,0,1.776,4.884,6.163,6.163,0,0,0,4.6,1.857M213.8,13.1V34.653H209V31.868a7.769,7.769,0,0,1-3.107,2.3,10.278,10.278,0,0,1-4.036.767,11.554,11.554,0,0,1-5.651-1.372,9.94,9.94,0,0,1-3.875-3.874,11.9,11.9,0,0,1-1.372-5.813,11.664,11.664,0,0,1,1.372-5.771A9.937,9.937,0,0,1,196.2,14.23a11.554,11.554,0,0,1,5.651-1.372,9.837,9.837,0,0,1,3.834.726,8.441,8.441,0,0,1,3.068,2.139V13.1Z" transform="translate(-69.81 -4.701)" fill="#fff"/>
    <path id="Caminho_6" data-name="Caminho 6" d="M239.429,34.936a19.274,19.274,0,0,1-5.126-.686,12.894,12.894,0,0,1-4-1.735l1.938-3.834a12.906,12.906,0,0,0,3.471,1.574,15.2,15.2,0,0,0,4.036.565q4.52,0,4.52-2.382a1.594,1.594,0,0,0-1.171-1.574,19.3,19.3,0,0,0-3.673-.848,30.749,30.749,0,0,1-4.359-.928,6.909,6.909,0,0,1-2.906-1.816,5.26,5.26,0,0,1-1.21-3.673,5.7,5.7,0,0,1,2.543-4.884,11.663,11.663,0,0,1,6.942-1.857,19.26,19.26,0,0,1,4.44.525,12.083,12.083,0,0,1,3.632,1.332l-1.937,3.834a11.953,11.953,0,0,0-6.175-1.614,6.794,6.794,0,0,0-3.39.686,1.947,1.947,0,0,0-1.131,1.736,1.788,1.788,0,0,0,1.211,1.735,21.54,21.54,0,0,0,3.834.929,29.462,29.462,0,0,1,4.238.928,6.484,6.484,0,0,1,2.825,1.776,4.9,4.9,0,0,1,1.211,3.552,5.619,5.619,0,0,1-2.623,4.843,12.37,12.37,0,0,1-7.144,1.816" transform="translate(-84.196 -4.701)" fill="#fff"/>
    <path id="Caminho_7" data-name="Caminho 7" d="M19.333,30.943q-.083-.112-.157-.228h0a5.2,5.2,0,0,1-.841-2.851V24.784h-3a4.953,4.953,0,0,1-2.792-.862c-.072-.049-.143-.1-.213-.154v4.1a3.042,3.042,0,0,0,3,3.079Z" transform="translate(-4.506 -8.69)" fill="#fff"/>
    <path id="Caminho_8" data-name="Caminho 8" d="M18.334,15.463a3.006,3.006,0,1,0-3,3.079h3Z" transform="translate(-4.506 -4.527)" fill="#fff"/>
    <path id="Caminho_9" data-name="Caminho 9" d="M25.018,28.452a3.006,3.006,0,1,0,3-3.079h-3Z" transform="translate(-9.146 -9.276)" fill="#fff"/>
    <path id="Caminho_10" data-name="Caminho 10" d="M15.872,14.016h3a5.162,5.162,0,0,1,0,10.322H10.823a5.105,5.105,0,0,1-5.048-5.161v-8.24a5.105,5.105,0,0,1,5.048-5.161,5.106,5.106,0,0,1,5.049,5.161ZM8.25,0A8.25,8.25,0,0,0,0,8.25v21.7H21.7a8.25,8.25,0,0,0,8.25-8.25V0Z" fill="#fff" fill-rule="evenodd"/>
  </g>
</svg>
